<?xml version="1.0" standalone="no"?><!DOCTYPE svg PUBLIC "-//W3C//DTD SVG 1.1//EN" "http://www.w3.org/Graphics/SVG/1.1/DTD/svg11.dtd"><svg t="1584611130412" class="icon" viewBox="0 0 1024 1024" version="1.1" xmlns="http://www.w3.org/2000/svg" p-id="3011" xmlns:xlink="http://www.w3.org/1999/xlink" width="128" height="128"><defs><style type="text/css"></style></defs><path d="M32 347.2h204.8v614.4H32zM32 80h204.8v235.2H32z" fill="#9DE8F7" p-id="3012"></path><path d="M0 48v944h268.8V48H0z m32 913.6V347.2h204.8v614.4H32z m204.8-646.4H32V80h204.8v235.2z" fill="#1A1718" p-id="3013"></path><path d="M368 347.2h204.8v614.4H368zM368 80h204.8v235.2H368z" fill="#FAD97F" p-id="3014"></path><path d="M336 48v944h268.8V48H336z m32 913.6V347.2h204.8v614.4H368z m204.8-646.4H368V80h204.8v235.2z" fill="#1A1718" p-id="3015"></path><path d="M931.2 297.6L910.4 64l-203.2 19.2 20.8 232zM988.8 940.8l-54.4-611.2-203.2 17.6L785.6 960z" fill="#F2385A" p-id="3016"></path><path d="M939.2 30.4L672 52.8l84.8 940.8L1024 971.2 939.2 30.4zM910.4 64l20.8 233.6-203.2 17.6-20.8-232L910.4 64z m24 265.6l54.4 611.2-203.2 19.2-54.4-612.8 203.2-17.6z" fill="#1A1718" p-id="3017"></path></svg>