<?xml version="1.0" standalone="no"?><!DOCTYPE svg PUBLIC "-//W3C//DTD SVG 1.1//EN" "http://www.w3.org/Graphics/SVG/1.1/DTD/svg11.dtd"><svg t="1584611495626" class="icon" viewBox="0 0 1091 1024" version="1.1" xmlns="http://www.w3.org/2000/svg" p-id="21196" xmlns:xlink="http://www.w3.org/1999/xlink" width="136.375" height="128"><defs><style type="text/css"></style></defs><path d="M314.071167 729.507403a318.728477 318.728477 0 1 0 450.742267-450.758001 318.728477 318.728477 0 1 0-450.742267 450.758001Z" fill="#E9EAEB" p-id="21197"></path><path d="M221.075497 288.890066l-21.700663-16.275496c77.308609-109.859603 204.8-176.317881 340.42914-176.317881 130.203974 0 250.913907 59.676821 330.935099 162.754967l-21.700662 16.275496C774.442384 179.030464 661.870199 123.422517 539.803974 123.422517c-126.135099 0-245.488742 61.033113-318.728477 165.467549zM539.803974 929.059603c-135.629139 0-264.476821-66.458278-341.785431-179.030464l21.700662-14.919205c73.239735 104.434437 192.593377 166.823841 320.084769 166.823841 77.308609 0 151.904636-23.056954 215.650331-65.101987l14.919205 23.056954c-67.81457 44.757616-147.835762 69.170861-230.569536 69.170861z" fill="#BCC0C4" p-id="21198"></path><path d="M763.592053 465.207947c0-50.182781-97.65298-90.871523-217.006623-90.871523s-217.006623 40.688742-217.006622 90.871523v181.743046c13.562914 40.688742 109.859603 81.377483 230.569536 81.377484s193.949669-55.607947 203.443709-81.377484c-1.356291-21.700662 0-160.042384 0-181.743046z" fill="#A3D4FF" p-id="21199"></path><path d="M558.792053 741.891391c-119.353642 0-226.500662-39.33245-242.776159-90.871523l-1.356291-2.712583V465.207947c0-58.32053 101.721854-104.434437 230.569536-104.434437s230.569536 46.113907 230.569536 104.434437v184.455629l-1.356291 2.712583c-10.850331 29.838411-89.515232 89.515232-215.650331 89.515232z m-215.650331-97.65298c12.206623 29.838411 94.940397 70.527152 217.006622 70.527152 109.859603 0 177.674172-48.82649 189.880795-70.527152V556.07947v-90.871523c0-36.619868-84.090066-77.308609-203.443709-77.308609s-203.443709 40.688742-203.443708 77.308609v179.030464z" fill="#2A5082" p-id="21200"></path><path d="M370.26755 484.196026h27.125827v162.754967h-27.125827z" fill="#2A5082" p-id="21201"></path><path d="M575.06755 271.258278c-13.562914-4.068874-28.482119-4.068874-42.045033 0l-406.887418 116.64106v42.045033L535.735099 556.07947c12.206623 4.068874 24.413245 4.068874 35.263576 0l394.680795-124.778808v-42.045033L575.06755 271.258278z" fill="#FFFFFF" p-id="21202"></path><path d="M553.366887 572.354967c-6.781457 0-14.919205-1.356291-21.700662-2.712583L112.572185 440.794702v-62.389404L530.309934 257.695364c16.275497-5.425166 33.907285-5.425166 50.182781 0l400.10596 120.709934v62.389404L908.715232 465.207947l-8.137749-25.769536 54.251656-18.98808v-23.056954l-381.117881-115.284768c-10.850331-4.068874-23.056954-4.068874-33.907284 0l-398.749669 115.284768V420.450331l400.10596 122.066225c9.49404 2.712583 18.988079 2.712583 28.482119 0l271.258278-86.802649 8.137749 25.769537L575.06755 569.642384c-6.781457 1.356291-13.562914 2.712583-21.700663 2.712583z" fill="#2A5082" p-id="21203"></path><path d="M870.739073 633.388079c-8.137748 0-13.562914-6.781457-13.562914-13.562913v-108.503312c0-14.919205-9.49404-28.482119-21.700662-31.194702l-282.10861-82.733775c-6.781457-2.712583-10.850331-9.49404-9.494039-16.275496 2.712583-6.781457 9.49404-10.850331 16.275496-9.49404l282.10861 82.733775c24.413245 5.425166 40.688742 29.838411 40.688741 58.32053v108.503311c1.356291 6.781457-5.425166 12.206623-12.206622 12.206622z" fill="#2A5082" p-id="21204"></path><path d="M926.34702 782.580132l-40.688742-135.629139h-27.125828l-40.688741 135.629139c-4.068874 13.562914 12.206623 27.125828 27.125827 27.125828h54.251656c13.562914 0 29.838411-13.562914 27.125828-27.125828z" fill="#FFFFFF" p-id="21205"></path><path d="M899.221192 823.268874h-54.251656c-12.206623 0-25.769536-6.781457-33.907284-17.631788-6.781457-8.137748-8.137748-17.631788-5.425166-27.125828l43.401325-145.123179H895.152318l43.401324 145.123179c2.712583 9.49404 0 18.988079-6.781457 27.125828-6.781457 10.850331-20.344371 17.631788-32.550993 17.631788z m-31.194702-162.754967L830.050331 786.649007c0 1.356291 0 2.712583 1.356292 2.712582 2.712583 4.068874 8.137748 6.781457 12.206622 6.781457h54.251656c4.068874 0 9.49404-2.712583 12.206622-6.781457 0-1.356291 1.356291-2.712583 1.356292-4.068874l-37.976159-126.135099H868.02649z" fill="#2A5082" p-id="21206"></path><path d="M912.784106 619.825166c0 23.056954-18.988079 40.688742-40.688742 40.688741-23.056954 0-40.688742-17.631788-40.688741-40.688741s18.988079-40.688742 40.688741-40.688742 40.688742 18.988079 40.688742 40.688742z" fill="#A3D4FF" p-id="21207"></path><path d="M870.739073 674.076821c-14.919205 0-28.482119-5.425166-37.976159-16.275496-10.850331-10.850331-16.275497-24.413245-16.275497-37.976159 0-29.838411 24.413245-54.251656 54.251656-54.251656 14.919205 0 28.482119 5.425166 37.976159 16.275497 10.850331 10.850331 16.275497 24.413245 16.275496 37.976159 0 29.838411-24.413245 54.251656-54.251655 54.251655z m1.356291-81.377483c-14.919205 0-27.125828 12.206623-27.125828 27.125828 0 6.781457 2.712583 13.562914 8.137749 18.988079 5.425166 5.425166 12.206623 8.137748 18.988079 8.137748 14.919205 0 27.125828-12.206623 27.125828-27.125827 0-6.781457-2.712583-13.562914-8.137748-18.98808-5.425166-5.425166-12.206623-8.137748-18.98808-8.137748z" fill="#2A5082" p-id="21208"></path></svg>