<?xml version="1.0" standalone="no"?><!DOCTYPE svg PUBLIC "-//W3C//DTD SVG 1.1//EN" "http://www.w3.org/Graphics/SVG/1.1/DTD/svg11.dtd"><svg t="1584611075002" class="icon" viewBox="0 0 1024 1024" version="1.1" xmlns="http://www.w3.org/2000/svg" p-id="1961" xmlns:xlink="http://www.w3.org/1999/xlink" width="128" height="128"><defs><style type="text/css"></style></defs><path d="M512 960h-6.4l-416-80c-14.4-3.2-25.6-16-25.6-32V96c0-9.6 4.8-17.6 11.2-24 6.4-6.4 16-8 25.6-8L512 128l411.2-64c9.6-1.6 19.2 1.6 25.6 8 6.4 6.4 11.2 14.4 11.2 24v128c0 17.6-14.4 32-32 32s-32-14.4-32-32V132.8L516.8 192h-9.6L128 132.8v688L512 896l384-73.6V416c0-17.6 14.4-32 32-32s32 14.4 32 32v432c0 16-11.2 28.8-25.6 32l-416 80H512z" fill="#211B13" p-id="1962"></path><path d="M736 320c-52.8 0-96 43.2-96 96 0 14.4 3.2 28.8 9.6 41.6l-72 72c-19.2-11.2-41.6-17.6-65.6-17.6-32 0-60.8 11.2-83.2 32l-54.4-54.4c-12.8-12.8-32-12.8-44.8 0s-12.8 32 0 44.8l62.4 62.4c-4.8 12.8-8 28.8-8 43.2 0 70.4 57.6 128 128 128s128-57.6 128-128c0-24-6.4-46.4-17.6-65.6l72-72c12.8 6.4 27.2 9.6 41.6 9.6 52.8 0 96-43.2 96-96s-43.2-96-96-96zM512 704c-35.2 0-64-28.8-64-64s28.8-64 64-64 64 28.8 64 64-28.8 64-64 64z m224-256c-17.6 0-32-14.4-32-32s14.4-32 32-32 32 14.4 32 32-14.4 32-32 32z" fill="#211B13" p-id="1963"></path><path d="M296 560c-57.6 0-104-46.4-104-104s46.4-104 104-104 104 46.4 104 104-46.4 104-104 104z m0-144c-22.4 0-40 17.6-40 40s17.6 40 40 40 40-17.6 40-40-17.6-40-40-40z" fill="#FFB243" p-id="1964"></path></svg>